<svg xmlns="http://www.w3.org/2000/svg" version="1.1" xmlnsXlink="http://www.w3.org/1999/xlink" xmlnsSvgjs="http://svgjs.dev/svgjs" width="1000" height="189" viewBox="0 0 1000 189"><g transform="matrix(1,0,0,1,0.05363414330264504,-0.5934350328671769)"><svg viewBox="0 0 386 73" data-background-color="#011638" preserveAspectRatio="xMidYMid meet" height="189" width="1000" xmlns="http://www.w3.org/2000/svg" xmlns:xlink="http://www.w3.org/1999/xlink"><g id="tight-bounds" transform="matrix(1,0,0,1,-0.020701348355260052,0.22921111954954654)"><svg viewBox="0 0 386.04140145622137 72.54157824739542" height="72.54157824739542" width="386.04140145622137"><g><svg viewBox="0 0 386.04140145622137 72.54157824739542" height="72.54157824739542" width="386.04140145622137"><g><svg viewBox="0 0 386.04140145622137 72.54157824739542" height="72.54157824739542" width="386.04140145622137"><g id="textblocktransform"><svg viewBox="0 0 386.04140145622137 72.54157824739542" height="72.54157824739542" width="386.04140145622137" id="textblock"><g><svg viewBox="0 0 386.04140145622137 45.10000000000001" height="45.10000000000001" width="386.04140145622137"><g><svg><g></g><g></g></svg></g><g><svg><g></g><g><svg></svg></g></svg></g><g id="text-0"><svg viewBox="0 0 386.04140145622137 45.10000000000001" height="45.10000000000001" width="386.04140145622137"><g><svg xmlns="http://www.w3.org/2000/svg" xmlns:xlink="http://www.w3.org/1999/xlink" version="1.1" x="0" y="0" viewBox="14.833003997802734 65 226.33399963378906 126" enable-background="new 0 0 256 256" xml:space="preserve" height="45.10000000000001" width="81.01320145622134" class="icon-s-0" data-fill-palette-color="accent" id="s-0"><g fill="#eef0f2" data-fill-palette-color="accent"><path fill-rule="evenodd" clip-rule="evenodd" d="M178.337 65H77.661c-34.644 0-62.828 28.356-62.828 63s28.185 63 62.828 63h100.676c34.645 0 62.83-28.356 62.83-63S212.981 65 178.337 65zM178.337 181H77.661c-29.13 0-52.828-23.87-52.828-53s23.698-53 52.828-53h100.676c29.131 0 52.83 23.87 52.83 53S207.468 181 178.337 181z" fill="#eef0f2" data-fill-palette-color="accent"></path><circle fill-rule="evenodd" clip-rule="evenodd" cx="177.13" cy="128" r="42" fill="#eef0f2" data-fill-palette-color="accent"></circle></g></svg></g><g transform="matrix(1,0,0,1,98.24140145622134,0)"><svg width="287.8" viewBox="1.600000023841858 -34.79999923706055 287.7799987792969 45.099998474121094" height="45.10000000000001" data-palette-color="#eec643"><path d="M13.9 0.6L13.9 0.6Q10.8 0.6 7.53-0.53 4.25-1.65 1.6-4.05L1.6-4.05 6.5-9.95Q8.25-8.55 10.28-7.68 12.3-6.8 14.1-6.8L14.1-6.8Q16.05-6.8 16.93-7.4 17.8-8 17.8-9.1L17.8-9.1Q17.8-9.7 17.5-10.1 17.2-10.5 16.63-10.85 16.05-11.2 15.25-11.53 14.45-11.85 13.4-12.25L13.4-12.25 9.35-13.95Q8.05-14.45 6.85-15.28 5.65-16.1 4.75-17.23 3.85-18.35 3.33-19.8 2.8-21.25 2.8-23L2.8-23Q2.8-25.1 3.7-26.93 4.6-28.75 6.2-30.13 7.8-31.5 10.03-32.3 12.25-33.1 14.9-33.1L14.9-33.1Q17.7-33.1 20.58-32.05 23.45-31 25.7-28.75L25.7-28.75 21.4-23.35Q19.75-24.5 18.23-25.1 16.7-25.7 14.9-25.7L14.9-25.7Q13.3-25.7 12.4-25.15 11.5-24.6 11.5-23.5L11.5-23.5Q11.5-22.35 12.78-21.73 14.05-21.1 16.3-20.25L16.3-20.25 20.25-18.7Q23.3-17.5 24.95-15.35 26.6-13.2 26.6-9.8L26.6-9.8Q26.6-7.75 25.75-5.85 24.9-3.95 23.28-2.53 21.65-1.1 19.3-0.25 16.95 0.6 13.9 0.6ZM42.2 0.6L42.2 0.6Q39.8 0.6 37.55-0.28 35.3-1.15 33.57-2.83 31.85-4.5 30.82-6.95 29.8-9.4 29.8-12.5L29.8-12.5Q29.8-15.6 30.82-18.05 31.85-20.5 33.57-22.18 35.3-23.85 37.55-24.73 39.8-25.6 42.2-25.6L42.2-25.6Q44.6-25.6 46.82-24.73 49.05-23.85 50.77-22.18 52.5-20.5 53.55-18.05 54.6-15.6 54.6-12.5L54.6-12.5Q54.6-9.4 53.55-6.95 52.5-4.5 50.77-2.83 49.05-1.15 46.82-0.28 44.6 0.6 42.2 0.6ZM42.2-6.3L42.2-6.3Q44.15-6.3 44.97-7.98 45.8-9.65 45.8-12.5L45.8-12.5Q45.8-15.35 44.97-17.03 44.15-18.7 42.2-18.7L42.2-18.7Q40.25-18.7 39.42-17.03 38.6-15.35 38.6-12.5L38.6-12.5Q38.6-9.65 39.42-7.98 40.25-6.3 42.2-6.3ZM66.7 0.6L66.7 0.6Q64.65 0.6 63.17-0.13 61.7-0.85 60.75-2.18 59.8-3.5 59.35-5.38 58.9-7.25 58.9-9.6L58.9-9.6 58.9-25 67.5-25 67.5-10.7Q67.5-8.3 68.1-7.5 68.7-6.7 70-6.7L70-6.7Q71.2-6.7 71.97-7.2 72.75-7.7 73.6-8.9L73.6-8.9 73.6-25 82.2-25 82.2 0 75.2 0 74.6-3.3 74.4-3.3Q72.9-1.5 71.07-0.45 69.25 0.6 66.7 0.6ZM96.59 0L87.99 0 87.99-25 94.99-25 95.59-22 95.79-22Q97.29-23.45 99.22-24.53 101.14-25.6 103.69-25.6L103.69-25.6Q107.79-25.6 109.64-22.83 111.49-20.05 111.49-15.4L111.49-15.4 111.49 0 102.89 0 102.89-14.3Q102.89-16.7 102.29-17.5 101.69-18.3 100.39-18.3L100.39-18.3Q99.19-18.3 98.39-17.8 97.59-17.3 96.59-16.4L96.59-16.4 96.59 0ZM126.19 0.6L126.19 0.6Q123.84 0.6 121.97-0.3 120.09-1.2 118.77-2.9 117.44-4.6 116.72-7.03 115.99-9.45 115.99-12.5L115.99-12.5Q115.99-15.55 116.87-18 117.74-20.45 119.17-22.13 120.59-23.8 122.44-24.7 124.29-25.6 126.19-25.6L126.19-25.6Q128.24-25.6 129.54-24.93 130.84-24.25 131.99-23.1L131.99-23.1 131.69-26.7 131.69-34.8 140.29-34.8 140.29 0 133.29 0 132.69-2.3 132.49-2.3Q131.19-1 129.52-0.2 127.84 0.6 126.19 0.6ZM128.49-6.4L128.49-6.4Q129.49-6.4 130.24-6.78 130.99-7.15 131.69-8.2L131.69-8.2 131.69-17.4Q130.94-18.1 130.04-18.35 129.14-18.6 128.29-18.6L128.29-18.6Q126.94-18.6 125.87-17.25 124.79-15.9 124.79-12.6L124.79-12.6Q124.79-9.2 125.77-7.8 126.74-6.4 128.49-6.4ZM161.59 0L152.99 0 152.99-25.3 144.39-25.3 144.39-32.5 170.19-32.5 170.19-25.3 161.59-25.3 161.59 0ZM181.39 0.6L181.39 0.6Q178.99 0.6 176.74-0.28 174.49-1.15 172.76-2.83 171.04-4.5 170.01-6.95 168.99-9.4 168.99-12.5L168.99-12.5Q168.99-15.6 170.01-18.05 171.04-20.5 172.76-22.18 174.49-23.85 176.74-24.73 178.99-25.6 181.39-25.6L181.39-25.6Q183.79-25.6 186.01-24.73 188.24-23.85 189.96-22.18 191.69-20.5 192.74-18.05 193.79-15.6 193.79-12.5L193.79-12.5Q193.79-9.4 192.74-6.95 191.69-4.5 189.96-2.83 188.24-1.15 186.01-0.28 183.79 0.6 181.39 0.6ZM181.39-6.3L181.39-6.3Q183.34-6.3 184.16-7.98 184.99-9.65 184.99-12.5L184.99-12.5Q184.99-15.35 184.16-17.03 183.34-18.7 181.39-18.7L181.39-18.7Q179.44-18.7 178.61-17.03 177.79-15.35 177.79-12.5L177.79-12.5Q177.79-9.65 178.61-7.98 179.44-6.3 181.39-6.3ZM207.38 10.3L207.38 10.3Q205.23 10.3 203.33 9.98 201.43 9.65 200.01 8.9 198.58 8.15 197.73 6.98 196.88 5.8 196.88 4.1L196.88 4.1Q196.88 1.15 200.38-0.7L200.38-0.7 200.38-0.9Q199.38-1.6 198.73-2.6 198.08-3.6 198.08-5.2L198.08-5.2Q198.08-6.5 198.83-7.75 199.58-9 200.88-9.9L200.88-9.9 200.88-10.1Q199.53-11 198.51-12.65 197.48-14.3 197.48-16.5L197.48-16.5Q197.48-18.8 198.38-20.53 199.28-22.25 200.78-23.38 202.28-24.5 204.21-25.05 206.13-25.6 208.18-25.6L208.18-25.6Q210.38-25.6 212.18-25L212.18-25 221.48-25 221.48-18.8 217.88-18.8Q218.03-18.35 218.16-17.65 218.28-16.95 218.28-16.2L218.28-16.2Q218.28-14 217.48-12.43 216.68-10.85 215.33-9.85 213.98-8.85 212.13-8.38 210.28-7.9 208.18-7.9L208.18-7.9Q206.93-7.9 205.38-8.25L205.38-8.25Q204.98-7.9 204.88-7.63 204.78-7.35 204.78-6.8L204.78-6.8Q204.78-5.95 205.58-5.63 206.38-5.3 208.28-5.3L208.28-5.3 212.03-5.3Q216.73-5.3 219.31-3.78 221.88-2.25 221.88 1.2L221.88 1.2Q221.88 3.25 220.86 4.93 219.83 6.6 217.96 7.8 216.08 9 213.41 9.65 210.73 10.3 207.38 10.3ZM208.18-13L208.18-13Q209.38-13 210.13-13.85 210.88-14.7 210.88-16.5L210.88-16.5Q210.88-18.25 210.13-19.07 209.38-19.9 208.18-19.9L208.18-19.9Q206.98-19.9 206.23-19.07 205.48-18.25 205.48-16.5L205.48-16.5Q205.48-14.7 206.23-13.85 206.98-13 208.18-13ZM208.78 5L208.78 5Q210.88 5 212.28 4.38 213.68 3.75 213.68 2.7L213.68 2.7Q213.68 1.7 212.81 1.45 211.93 1.2 210.33 1.2L210.33 1.2 208.38 1.2Q206.88 1.2 206.11 1.13 205.33 1.05 204.78 0.9L204.78 0.9Q204.33 1.35 204.11 1.75 203.88 2.15 203.88 2.7L203.88 2.7Q203.88 3.9 205.23 4.45 206.58 5 208.78 5ZM234.68 10.3L234.68 10.3Q232.53 10.3 230.63 9.98 228.73 9.65 227.31 8.9 225.88 8.15 225.03 6.98 224.18 5.8 224.18 4.1L224.18 4.1Q224.18 1.15 227.68-0.7L227.68-0.7 227.68-0.9Q226.68-1.6 226.03-2.6 225.38-3.6 225.38-5.2L225.38-5.2Q225.38-6.5 226.13-7.75 226.88-9 228.18-9.9L228.18-9.9 228.18-10.1Q226.83-11 225.81-12.65 224.78-14.3 224.78-16.5L224.78-16.5Q224.78-18.8 225.68-20.53 226.58-22.25 228.08-23.38 229.58-24.5 231.51-25.05 233.43-25.6 235.48-25.6L235.48-25.6Q237.68-25.6 239.48-25L239.48-25 248.78-25 248.78-18.8 245.18-18.8Q245.33-18.35 245.46-17.65 245.58-16.95 245.58-16.2L245.58-16.2Q245.58-14 244.78-12.43 243.98-10.85 242.63-9.85 241.28-8.85 239.43-8.38 237.58-7.9 235.48-7.9L235.48-7.9Q234.23-7.9 232.68-8.25L232.68-8.25Q232.28-7.9 232.18-7.63 232.08-7.35 232.08-6.8L232.08-6.8Q232.08-5.95 232.88-5.63 233.68-5.3 235.58-5.3L235.58-5.3 239.33-5.3Q244.03-5.3 246.61-3.78 249.18-2.25 249.18 1.2L249.18 1.2Q249.18 3.25 248.16 4.93 247.13 6.6 245.26 7.8 243.38 9 240.71 9.65 238.03 10.3 234.68 10.3ZM235.48-13L235.48-13Q236.68-13 237.43-13.85 238.18-14.7 238.18-16.5L238.18-16.5Q238.18-18.25 237.43-19.07 236.68-19.9 235.48-19.9L235.48-19.9Q234.28-19.9 233.53-19.07 232.78-18.25 232.78-16.5L232.78-16.5Q232.78-14.7 233.53-13.85 234.28-13 235.48-13ZM236.08 5L236.08 5Q238.18 5 239.58 4.38 240.98 3.75 240.98 2.7L240.98 2.7Q240.98 1.7 240.11 1.45 239.23 1.2 237.63 1.2L237.63 1.2 235.68 1.2Q234.18 1.2 233.41 1.13 232.63 1.05 232.08 0.9L232.08 0.9Q231.63 1.35 231.41 1.75 231.18 2.15 231.18 2.7L231.18 2.7Q231.18 3.9 232.53 4.45 233.88 5 236.08 5ZM260.58 0.6L260.58 0.6Q258.38 0.6 256.9-0.08 255.43-0.75 254.53-2 253.63-3.25 253.25-4.98 252.88-6.7 252.88-8.8L252.88-8.8 252.88-34.8 261.48-34.8 261.48-8.5Q261.48-7.2 261.95-6.75 262.43-6.3 262.88-6.3L262.88-6.3Q263.13-6.3 263.3-6.3 263.48-6.3 263.78-6.4L263.78-6.4 264.78-0.1Q264.08 0.2 263.05 0.4 262.03 0.6 260.58 0.6ZM279.38 0.6L279.38 0.6Q276.63 0.6 274.28-0.28 271.93-1.15 270.2-2.83 268.48-4.5 267.48-6.95 266.48-9.4 266.48-12.5L266.48-12.5Q266.48-15.55 267.5-17.98 268.53-20.4 270.2-22.1 271.88-23.8 274.03-24.7 276.18-25.6 278.48-25.6L278.48-25.6Q281.23-25.6 283.28-24.65 285.33-23.7 286.68-22.05 288.03-20.4 288.7-18.2 289.38-16 289.38-13.5L289.38-13.5Q289.38-12.35 289.25-11.35 289.13-10.35 289.03-9.9L289.03-9.9 274.78-9.9Q275.38-7.65 276.93-6.78 278.48-5.9 280.58-5.9L280.58-5.9Q281.88-5.9 283.1-6.28 284.33-6.65 285.68-7.4L285.68-7.4 288.48-2.3Q286.43-0.85 283.95-0.13 281.48 0.6 279.38 0.6ZM274.68-15.5L274.68-15.5 282.08-15.5Q282.08-16.95 281.35-18.03 280.63-19.1 278.68-19.1L278.68-19.1Q277.23-19.1 276.15-18.25 275.08-17.4 274.68-15.5Z" opacity="1" transform="matrix(1,0,0,1,0,0)" fill="#eec643" class="undefined-text-0" data-fill-palette-color="primary"></path></svg></g></svg></g></svg></g><g transform="matrix(1,0,0,1,159.3964946612738,55.74702760000001)"><svg viewBox="0 0 226.64490679494756 16.7945506473954" height="16.7945506473954" width="226.64490679494756"><g transform="matrix(1,0,0,1,0,0)"><svg width="226.64490679494756" viewBox="3.799999952316284 -35.29999923706055 625.4299926757812 46.349998474121094" height="16.7945506473954" data-palette-color="#eef0f2"><path d="M6.5 0L3.8 0 3.8-34.75 8.6-35.3 8.6-22.85Q10.05-23.8 11.75-24.43 13.45-25.05 14.95-25.05L14.95-25.05Q20.3-25.05 23-21.38 25.7-17.7 25.7-12.2L25.7-12.2Q25.7-6.7 22.98-3.05 20.25 0.6 14.95 0.6L14.95 0.6Q13.25 0.6 11.25-0.13 9.25-0.85 7.65-2.1L7.65-2.1 6.5 0ZM8.6-18.75L8.6-5.6Q9.85-4.6 11.3-4.03 12.75-3.45 14-3.45L14-3.45Q17.75-3.45 19.28-6.08 20.8-8.7 20.8-12.15L20.8-12.15Q20.8-15.8 19.35-18.38 17.9-20.95 14-20.95L14-20.95Q12.75-20.95 11.3-20.38 9.85-19.8 8.6-18.75L8.6-18.75ZM52.6-11.05L52.6-11.05 35.4-11.05Q35.65-7.7 37.5-5.55 39.35-3.4 43.05-3.4L43.05-3.4Q45.2-3.4 46.67-3.88 48.15-4.35 49.65-5.05L49.65-5.05 51.15-1.55Q49.55-0.45 47.07 0.08 44.6 0.6 43.05 0.6L43.05 0.6Q36.95 0.6 33.67-2.93 30.4-6.45 30.4-12.15L30.4-12.15Q30.4-17.8 33.47-21.35 36.55-24.9 42-24.9L42-24.9Q47.9-24.9 50.25-20.75 52.6-16.6 52.6-11.05ZM35.5-14.3L47.95-14.3Q47.5-17.3 46.05-19.05 44.6-20.8 41.85-20.8L41.85-20.8Q39.05-20.8 37.45-19.03 35.85-17.25 35.5-14.3L35.5-14.3ZM59.05-23.75L59.05-27.1Q59.05-30.75 61.1-32.93 63.15-35.1 66.75-35.1L66.75-35.1Q67.85-35.1 69-34.75 70.15-34.4 70.8-34L70.8-34 69.6-30.3Q69.1-30.5 68.42-30.68 67.75-30.85 67.2-30.85L67.2-30.85Q65.4-30.85 64.62-29.68 63.85-28.5 63.85-26.65L63.85-26.65 63.85-23.75 68.35-23.75 69.9-20.05 63.85-20.05 63.85 0 59.05 0 59.05-20.05 55.4-20.05 55.35-23.75 59.05-23.75ZM84.74 0.65L84.74 0.65Q79.24 0.6 76.39-2.98 73.54-6.55 73.54-12.2L73.54-12.2Q73.59-17.8 76.64-21.33 79.69-24.85 85.19-24.9L85.19-24.9Q90.89-24.9 93.82-21.28 96.74-17.65 96.74-11.95L96.74-11.95Q96.74-6.3 93.54-2.85 90.34 0.6 84.74 0.65ZM91.89-11.95L91.89-11.95Q91.89-15.85 90.34-18.32 88.79-20.8 85.34-20.8L85.34-20.8Q81.89-20.8 80.19-18.48 78.49-16.15 78.44-12.25L78.44-12.25Q78.44-8.2 79.92-5.83 81.39-3.45 84.84-3.45L84.84-3.45Q88.24-3.45 90.04-5.7 91.84-7.95 91.89-11.95ZM107.59 0L102.79 0 102.79-24.25 105.49-24.25 107.04-20.8Q108.44-22 110.57-23.13 112.69-24.25 114.64-24.25L114.64-24.25 115.69-20.4Q113.69-20.4 111.52-19.33 109.34-18.25 107.59-16.55L107.59-16.55 107.59 0ZM140.64-11.05L140.64-11.05 123.44-11.05Q123.69-7.7 125.54-5.55 127.39-3.4 131.09-3.4L131.09-3.4Q133.24-3.4 134.71-3.88 136.19-4.35 137.69-5.05L137.69-5.05 139.19-1.55Q137.59-0.45 135.11 0.08 132.64 0.6 131.09 0.6L131.09 0.6Q124.99 0.6 121.71-2.93 118.44-6.45 118.44-12.15L118.44-12.15Q118.44-17.8 121.51-21.35 124.59-24.9 130.04-24.9L130.04-24.9Q135.94-24.9 138.29-20.75 140.64-16.6 140.64-11.05ZM123.54-14.3L135.99-14.3Q135.54-17.3 134.09-19.05 132.64-20.8 129.89-20.8L129.89-20.8Q127.09-20.8 125.49-19.03 123.89-17.25 123.54-14.3L123.54-14.3ZM161.33-7L161.33-7Q161.33-5.6 162.33-4.4 163.33-3.2 165.38-3.2L165.38-3.2Q167.23-3.2 168.86-4.1 170.48-5 171.73-6.4L171.73-6.4 171.73-11.3 165.83-11.3Q163.63-11.3 162.48-10 161.33-8.7 161.33-7ZM159.83-18.95L158.48-22.75Q159.88-23.7 162.53-24.3 165.18-24.9 166.73-24.9L166.73-24.9Q170.93-24.9 173.73-22.55 176.53-20.2 176.53-16.45L176.53-16.45 176.53 0 173.83 0Q173.48-0.55 173.18-1.15 172.88-1.75 172.58-2.3L172.58-2.3Q171.33-1.2 169.38-0.3 167.43 0.6 165.48 0.6L165.48 0.6Q161.18 0.6 159.11-1.55 157.03-3.7 157.03-7L157.03-7Q157.03-10.65 159.51-12.58 161.98-14.5 165.93-14.5L165.93-14.5 171.68-14.5Q171.68-17 170.68-18.8 169.68-20.6 166.83-20.6L166.83-20.6Q164.68-20.6 162.93-20.08 161.18-19.55 159.83-18.95L159.83-18.95ZM186.28-24.25L187.78-21.05Q189.33-22.75 191.78-23.9 194.23-25.05 196.33-25.05L196.33-25.05Q200.78-25.05 202.81-22.48 204.83-19.9 204.83-16L204.83-16 204.83 0 200.03 0 200.03-15.55Q200.03-18 198.86-19.45 197.68-20.9 195.33-20.95L195.33-20.95Q193.83-20.95 191.83-20 189.83-19.05 188.38-17.5L188.38-17.5 188.38 0 183.58 0 183.58-24.25 186.28-24.25ZM222.28-20.95L222.28-20.95Q218.53-20.95 217-18.3 215.48-15.65 215.48-12.2L215.48-12.2Q215.48-8.55 216.93-6 218.38-3.45 222.28-3.45L222.28-3.45Q223.63-3.45 225.1-4.08 226.58-4.7 227.93-5.8L227.93-5.8 227.93-18.6Q226.58-19.7 225.1-20.33 223.63-20.95 222.28-20.95ZM227.93-34.75L232.78-35.25 232.78 0 230.03 0 228.73-2.25Q227.18-0.9 225.1-0.13 223.03 0.65 221.28 0.65L221.28 0.65Q215.98 0.65 213.28-3 210.58-6.65 210.58-12.15L210.58-12.15Q210.58-17.7 213.35-21.38 216.13-25.05 221.43-25.05L221.43-25.05Q222.93-25.05 224.68-24.43 226.43-23.8 227.93-22.8L227.93-22.8 227.93-34.75ZM255.17-7L255.17-7Q255.17-5.6 256.17-4.4 257.17-3.2 259.22-3.2L259.22-3.2Q261.07-3.2 262.7-4.1 264.32-5 265.57-6.4L265.57-6.4 265.57-11.3 259.67-11.3Q257.47-11.3 256.32-10 255.17-8.7 255.17-7ZM253.67-18.95L252.32-22.75Q253.72-23.7 256.37-24.3 259.02-24.9 260.57-24.9L260.57-24.9Q264.77-24.9 267.57-22.55 270.37-20.2 270.37-16.45L270.37-16.45 270.37 0 267.67 0Q267.32-0.55 267.02-1.15 266.72-1.75 266.42-2.3L266.42-2.3Q265.17-1.2 263.22-0.3 261.27 0.6 259.32 0.6L259.32 0.6Q255.02 0.6 252.95-1.55 250.87-3.7 250.87-7L250.87-7Q250.87-10.65 253.35-12.58 255.82-14.5 259.77-14.5L259.77-14.5 265.52-14.5Q265.52-17 264.52-18.8 263.52-20.6 260.67-20.6L260.67-20.6Q258.52-20.6 256.77-20.08 255.02-19.55 253.67-18.95L253.67-18.95ZM278.12-23.75L278.12-27.1Q278.12-30.75 280.17-32.93 282.22-35.1 285.82-35.1L285.82-35.1Q286.92-35.1 288.07-34.75 289.22-34.4 289.87-34L289.87-34 288.67-30.3Q288.17-30.5 287.5-30.68 286.82-30.85 286.27-30.85L286.27-30.85Q284.47-30.85 283.7-29.68 282.92-28.5 282.92-26.65L282.92-26.65 282.92-23.75 287.42-23.75 288.97-20.05 282.92-20.05 282.92 0 278.12 0 278.12-20.05 274.47-20.05 274.42-23.75 278.12-23.75ZM304.97-3.85L306.22-0.2Q305.57 0.15 304.39 0.5 303.22 0.85 302.12 0.85L302.12 0.85Q298.57 0.85 296.47-1.1 294.37-3.05 294.37-6.75L294.37-6.75 294.37-20.3 290.97-20.3 290.92-23.95 294.37-23.95 294.37-30 299.17-31.1 299.17-23.95 303.57-23.95 305.07-20.3 299.17-20.3 299.17-7.5Q299.17-5.65 299.99-4.48 300.82-3.3 302.62-3.3L302.62-3.3Q303.22-3.3 303.84-3.48 304.47-3.65 304.97-3.85L304.97-3.85ZM331.82-11.05L331.82-11.05 314.62-11.05Q314.87-7.7 316.72-5.55 318.57-3.4 322.27-3.4L322.27-3.4Q324.42-3.4 325.89-3.88 327.37-4.35 328.87-5.05L328.87-5.05 330.37-1.55Q328.77-0.45 326.29 0.08 323.82 0.6 322.27 0.6L322.27 0.6Q316.17 0.6 312.89-2.93 309.62-6.45 309.62-12.15L309.62-12.15Q309.62-17.8 312.69-21.35 315.77-24.9 321.22-24.9L321.22-24.9Q327.12-24.9 329.47-20.75 331.82-16.6 331.82-11.05ZM314.72-14.3L327.17-14.3Q326.72-17.3 325.27-19.05 323.82-20.8 321.07-20.8L321.07-20.8Q318.27-20.8 316.67-19.03 315.07-17.25 314.72-14.3L314.72-14.3ZM342.36 0L337.56 0 337.56-24.25 340.26-24.25 341.81-20.8Q343.21-22 345.34-23.13 347.46-24.25 349.41-24.25L349.41-24.25 350.46-20.4Q348.46-20.4 346.29-19.33 344.11-18.25 342.36-16.55L342.36-16.55 342.36 0ZM369.46-7L369.46-7Q369.46-5.6 370.46-4.4 371.46-3.2 373.51-3.2L373.51-3.2Q375.36-3.2 376.98-4.1 378.61-5 379.86-6.4L379.86-6.4 379.86-11.3 373.96-11.3Q371.76-11.3 370.61-10 369.46-8.7 369.46-7ZM367.96-18.95L366.61-22.75Q368.01-23.7 370.66-24.3 373.31-24.9 374.86-24.9L374.86-24.9Q379.06-24.9 381.86-22.55 384.66-20.2 384.66-16.45L384.66-16.45 384.66 0 381.96 0Q381.61-0.55 381.31-1.15 381.01-1.75 380.71-2.3L380.71-2.3Q379.46-1.2 377.51-0.3 375.56 0.6 373.61 0.6L373.61 0.6Q369.31 0.6 367.23-1.55 365.16-3.7 365.16-7L365.16-7Q365.16-10.65 367.63-12.58 370.11-14.5 374.06-14.5L374.06-14.5 379.81-14.5Q379.81-17 378.81-18.8 377.81-20.6 374.96-20.6L374.96-20.6Q372.81-20.6 371.06-20.08 369.31-19.55 367.96-18.95L367.96-18.95ZM409.31 0L407.91-2.55Q406.31-1.05 404.08-0.13 401.86 0.8 399.91 0.8L399.91 0.8Q395.45 0.8 393.43-1.78 391.41-4.35 391.41-8.25L391.41-8.25 391.41-24.25 396.25-24.25 396.25-8.6Q396.25-6.25 397.43-4.78 398.61-3.3 400.91-3.3L400.91-3.3Q402.25-3.3 404-4.03 405.75-4.75 407.25-6L407.25-6 407.25-24.25 412.06-24.25 412.06 0 409.31 0ZM429.75-20.95L429.75-20.95Q426-20.95 424.48-18.3 422.95-15.65 422.95-12.2L422.95-12.2Q422.95-8.55 424.4-6 425.85-3.45 429.75-3.45L429.75-3.45Q431.1-3.45 432.58-4.08 434.05-4.7 435.4-5.8L435.4-5.8 435.4-18.6Q434.05-19.7 432.58-20.33 431.1-20.95 429.75-20.95ZM435.4-34.75L440.25-35.25 440.25 0 437.5 0 436.2-2.25Q434.65-0.9 432.58-0.13 430.5 0.65 428.75 0.65L428.75 0.65Q423.45 0.65 420.75-3 418.05-6.65 418.05-12.15L418.05-12.15Q418.05-17.7 420.83-21.38 423.6-25.05 428.9-25.05L428.9-25.05Q430.4-25.05 432.15-24.43 433.9-23.8 435.4-22.8L435.4-22.8 435.4-34.75ZM450.1-28.6L450.1-28.6Q448.85-28.6 448-29.48 447.15-30.35 447.15-31.6L447.15-31.6Q447.1-32.85 447.98-33.73 448.85-34.6 450.1-34.6L450.1-34.6Q451.35-34.6 452.25-33.73 453.15-32.85 453.15-31.6L453.15-31.6Q453.15-30.35 452.25-29.48 451.35-28.6 450.1-28.6ZM452.55 0L447.7 0 447.7-24.25 452.55-24.25 452.55 0ZM469.8 0.65L469.8 0.65Q464.3 0.6 461.45-2.98 458.6-6.55 458.6-12.2L458.6-12.2Q458.65-17.8 461.7-21.33 464.75-24.85 470.25-24.9L470.25-24.9Q475.95-24.9 478.87-21.28 481.8-17.65 481.8-11.95L481.8-11.95Q481.8-6.3 478.6-2.85 475.4 0.6 469.8 0.65ZM476.95-11.95L476.95-11.95Q476.95-15.85 475.4-18.32 473.85-20.8 470.4-20.8L470.4-20.8Q466.95-20.8 465.25-18.48 463.55-16.15 463.5-12.25L463.5-12.25Q463.5-8.2 464.97-5.83 466.45-3.45 469.9-3.45L469.9-3.45Q473.3-3.45 475.1-5.7 476.9-7.95 476.95-11.95ZM504.59-18.75L504.59-5.6Q505.84-4.6 507.29-4.03 508.74-3.45 509.99-3.45L509.99-3.45Q513.74-3.45 515.27-6.08 516.79-8.7 516.79-12.15L516.79-12.15Q516.79-15.8 515.34-18.38 513.89-20.95 509.99-20.95L509.99-20.95Q508.74-20.95 507.29-20.38 505.84-19.8 504.59-18.75L504.59-18.75ZM504.59 10.4L499.79 10.95 499.79-24.25 502.49-24.25 503.54-22.2Q505.14-23.45 507.19-24.25 509.24-25.05 510.94-25.05L510.94-25.05Q516.29-25.05 518.99-21.38 521.69-17.7 521.69-12.2L521.69-12.2Q521.69-6.7 518.97-3.05 516.24 0.6 510.94 0.6L510.94 0.6Q509.44 0.6 507.74 0.03 506.04-0.55 504.59-1.55L504.59-1.55 504.59 10.4ZM532.64 0L527.84 0 527.84-34.75 532.64-35.3 532.64 0ZM543.24-7L543.24-7Q543.24-5.6 544.24-4.4 545.24-3.2 547.29-3.2L547.29-3.2Q549.14-3.2 550.76-4.1 552.39-5 553.64-6.4L553.64-6.4 553.64-11.3 547.74-11.3Q545.54-11.3 544.39-10 543.24-8.7 543.24-7ZM541.74-18.95L540.39-22.75Q541.79-23.7 544.44-24.3 547.09-24.9 548.64-24.9L548.64-24.9Q552.84-24.9 555.64-22.55 558.44-20.2 558.44-16.45L558.44-16.45 558.44 0 555.74 0Q555.39-0.55 555.09-1.15 554.79-1.75 554.49-2.3L554.49-2.3Q553.24-1.2 551.29-0.3 549.34 0.6 547.39 0.6L547.39 0.6Q543.09 0.6 541.01-1.55 538.94-3.7 538.94-7L538.94-7Q538.94-10.65 541.41-12.58 543.89-14.5 547.84-14.5L547.84-14.5 553.59-14.5Q553.59-17 552.59-18.8 551.59-20.6 548.74-20.6L548.74-20.6Q546.59-20.6 544.84-20.08 543.09-19.55 541.74-18.95L541.74-18.95ZM570.23 3.05L570.23 3.05 571.63-0.65 562.48-23.55 567.33-24.25 574.08-6.85 580.48-24.25 585.43-24.25 577.28-2.9 574.68 4.4Q573.73 6.9 571.41 8.65 569.08 10.4 566.28 11.05L566.28 11.05 564.68 7.35Q566.48 6.55 568.03 5.65 569.58 4.75 570.23 3.05ZM610.58-11.05L610.58-11.05 593.38-11.05Q593.63-7.7 595.48-5.55 597.33-3.4 601.03-3.4L601.03-3.4Q603.18-3.4 604.66-3.88 606.13-4.35 607.63-5.05L607.63-5.05 609.13-1.55Q607.53-0.45 605.06 0.08 602.58 0.6 601.03 0.6L601.03 0.6Q594.93 0.6 591.66-2.93 588.38-6.45 588.38-12.15L588.38-12.15Q588.38-17.8 591.46-21.35 594.53-24.9 599.98-24.9L599.98-24.9Q605.88-24.9 608.23-20.75 610.58-16.6 610.58-11.05ZM593.48-14.3L605.93-14.3Q605.48-17.3 604.03-19.05 602.58-20.8 599.83-20.8L599.83-20.8Q597.03-20.8 595.43-19.03 593.83-17.25 593.48-14.3L593.48-14.3ZM621.13 0L616.33 0 616.33-24.25 619.03-24.25 620.58-20.8Q621.98-22 624.1-23.13 626.23-24.25 628.18-24.25L628.18-24.25 629.23-20.4Q627.23-20.4 625.05-19.33 622.88-18.25 621.13-16.55L621.13-16.55 621.13 0Z" opacity="1" transform="matrix(1,0,0,1,0,0)" fill="#eef0f2" class="undefined-text-1" data-fill-palette-color="secondary" id="text-1"></path></svg></g></svg></g></svg></g></svg></g></svg></g><defs></defs></svg><rect width="386.04140145622137" height="72.54157824739542" fill="none" stroke="none" visibility="hidden"></rect></g></svg></g></svg>